<mxfile host="app.diagrams.net" agent="Mozilla/5.0 (Macintosh; Intel Mac OS X 10_15_7) AppleWebKit/537.36 (KHTML, like Gecko) Chrome/138.0.0.0 Safari/537.36" version="28.0.4">
  <diagram name="Seite-1" id="1qzofpD81koEnCo5l6WQ">
    <mxGraphModel dx="765" dy="448" grid="1" gridSize="10" guides="1" tooltips="1" connect="1" arrows="1" fold="1" page="1" pageScale="1" pageWidth="827" pageHeight="1169" math="0" shadow="0">
      <root>
        <mxCell id="0" />
        <mxCell id="1" parent="0" />
        <mxCell id="dzOLKpJsvzJ7OyGeg9tF-1" value="" style="rounded=0;whiteSpace=wrap;html=1;connectable=1;allowArrows=0;strokeWidth=2;editable=1;movable=0;resizable=1;rotatable=0;deletable=1;locked=0;cloneable=0;" vertex="1" parent="1">
          <mxGeometry x="180" y="100" width="330" height="260" as="geometry" />
        </mxCell>
        <mxCell id="dzOLKpJsvzJ7OyGeg9tF-2" value="" style="rounded=0;whiteSpace=wrap;html=1;connectable=0;allowArrows=0;" vertex="1" parent="1">
          <mxGeometry x="230" y="130" width="150" height="160" as="geometry" />
        </mxCell>
        <mxCell id="dzOLKpJsvzJ7OyGeg9tF-5" value="3 m" style="text;html=1;align=center;verticalAlign=middle;whiteSpace=wrap;rounded=0;fontFamily=Times New Roman;rotation=-90;" vertex="1" parent="1">
          <mxGeometry x="180" y="195" width="60" height="30" as="geometry" />
        </mxCell>
        <mxCell id="dzOLKpJsvzJ7OyGeg9tF-7" value="2.75 m" style="text;html=1;align=center;verticalAlign=middle;whiteSpace=wrap;rounded=0;fontFamily=Times New Roman;rotation=0;" vertex="1" parent="1">
          <mxGeometry x="275" y="294" width="60" height="30" as="geometry" />
        </mxCell>
        <mxCell id="dzOLKpJsvzJ7OyGeg9tF-14" value="&lt;font style=&quot;font-size: 8px;&quot; face=&quot;Times New Roman&quot;&gt;Marker 2&lt;/font&gt;" style="text;html=1;align=center;verticalAlign=middle;whiteSpace=wrap;rounded=0;" vertex="1" parent="1">
          <mxGeometry x="225" y="135.5" width="60" height="30" as="geometry" />
        </mxCell>
        <mxCell id="dzOLKpJsvzJ7OyGeg9tF-22" value="" style="rounded=0;whiteSpace=wrap;html=1;" vertex="1" parent="1">
          <mxGeometry x="447.4" y="115" width="30" height="80" as="geometry" />
        </mxCell>
        <mxCell id="dzOLKpJsvzJ7OyGeg9tF-24" value="" style="endArrow=baseDash;html=1;rounded=0;startArrow=baseDash;startFill=0;endFill=0;" edge="1" parent="1">
          <mxGeometry width="50" height="50" relative="1" as="geometry">
            <mxPoint x="220" y="290" as="sourcePoint" />
            <mxPoint x="220" y="130" as="targetPoint" />
          </mxGeometry>
        </mxCell>
        <mxCell id="dzOLKpJsvzJ7OyGeg9tF-25" value="" style="endArrow=baseDash;html=1;rounded=0;startArrow=baseDash;startFill=0;endFill=0;" edge="1" parent="1">
          <mxGeometry width="50" height="50" relative="1" as="geometry">
            <mxPoint x="230" y="300" as="sourcePoint" />
            <mxPoint x="380" y="300" as="targetPoint" />
          </mxGeometry>
        </mxCell>
        <mxCell id="dzOLKpJsvzJ7OyGeg9tF-26" value="" style="verticalLabelPosition=bottom;html=1;verticalAlign=top;align=center;shape=mxgraph.floorplan.chair;rotation=-90;" vertex="1" parent="1">
          <mxGeometry x="429.2" y="130" width="15" height="15" as="geometry" />
        </mxCell>
        <mxCell id="dzOLKpJsvzJ7OyGeg9tF-27" value="" style="verticalLabelPosition=bottom;html=1;verticalAlign=top;align=center;shape=mxgraph.floorplan.chair;rotation=-90;" vertex="1" parent="1">
          <mxGeometry x="430" y="167.5" width="15" height="15" as="geometry" />
        </mxCell>
        <mxCell id="dzOLKpJsvzJ7OyGeg9tF-28" value="" style="rounded=0;whiteSpace=wrap;html=1;" vertex="1" parent="1">
          <mxGeometry x="447.4" y="205" width="56" height="20" as="geometry" />
        </mxCell>
        <mxCell id="dzOLKpJsvzJ7OyGeg9tF-29" value="" style="shape=image;html=1;verticalAlign=top;verticalLabelPosition=bottom;labelBackgroundColor=#ffffff;imageAspect=0;aspect=fixed;image=https://icons.diagrams.net/icon-cache1/Essential_App_2-2093/charging-energy-battery-electricity-1052.svg" vertex="1" parent="1">
          <mxGeometry x="457.59999999999997" y="207" width="16" height="16" as="geometry" />
        </mxCell>
        <mxCell id="dzOLKpJsvzJ7OyGeg9tF-30" value="" style="shape=image;html=1;verticalAlign=top;verticalLabelPosition=bottom;labelBackgroundColor=#ffffff;imageAspect=0;aspect=fixed;image=https://icons.diagrams.net/icon-cache1/48_Bubbles-2335/38.Location-Pin-610.svg" vertex="1" parent="1">
          <mxGeometry x="250" y="137.5" width="10" height="10" as="geometry" />
        </mxCell>
        <mxCell id="dzOLKpJsvzJ7OyGeg9tF-31" value="&lt;font style=&quot;font-size: 8px;&quot; face=&quot;Times New Roman&quot;&gt;Marker 3&lt;/font&gt;" style="text;html=1;align=center;verticalAlign=middle;whiteSpace=wrap;rounded=0;" vertex="1" parent="1">
          <mxGeometry x="319" y="135.5" width="60" height="30" as="geometry" />
        </mxCell>
        <mxCell id="dzOLKpJsvzJ7OyGeg9tF-32" value="" style="shape=image;html=1;verticalAlign=top;verticalLabelPosition=bottom;labelBackgroundColor=#ffffff;imageAspect=0;aspect=fixed;image=https://icons.diagrams.net/icon-cache1/48_Bubbles-2335/38.Location-Pin-610.svg" vertex="1" parent="1">
          <mxGeometry x="344" y="137.5" width="10" height="10" as="geometry" />
        </mxCell>
        <mxCell id="dzOLKpJsvzJ7OyGeg9tF-33" value="&lt;font style=&quot;font-size: 8px;&quot; face=&quot;Times New Roman&quot;&gt;Marker 1&lt;/font&gt;" style="text;html=1;align=center;verticalAlign=middle;whiteSpace=wrap;rounded=0;" vertex="1" parent="1">
          <mxGeometry x="275" y="264" width="60" height="30" as="geometry" />
        </mxCell>
        <mxCell id="dzOLKpJsvzJ7OyGeg9tF-34" value="" style="shape=image;html=1;verticalAlign=top;verticalLabelPosition=bottom;labelBackgroundColor=#ffffff;imageAspect=0;aspect=fixed;image=https://icons.diagrams.net/icon-cache1/48_Bubbles-2335/38.Location-Pin-610.svg" vertex="1" parent="1">
          <mxGeometry x="300" y="266" width="10" height="10" as="geometry" />
        </mxCell>
        <mxCell id="dzOLKpJsvzJ7OyGeg9tF-37" value="" style="points=[[0,0.5,0],[0.19,0.02,0],[0.59,0,0],[0.985,0.02,0],[1,0.5,0],[0.985,0.98,0],[0.59,1,0],[0.19,0.98,0]];verticalLabelPosition=bottom;sketch=0;html=1;verticalAlign=top;aspect=fixed;align=center;pointerEvents=1;shape=mxgraph.cisco19.camera;fillColor=#000000;strokeColor=none;rotation=45;" vertex="1" parent="1">
          <mxGeometry x="433" y="332" width="28.8" height="16" as="geometry" />
        </mxCell>
        <mxCell id="dzOLKpJsvzJ7OyGeg9tF-38" value="" style="endArrow=none;dashed=1;html=1;dashPattern=1 3;strokeWidth=2;rounded=0;" edge="1" parent="1">
          <mxGeometry width="50" height="50" relative="1" as="geometry">
            <mxPoint x="219" y="318" as="sourcePoint" />
            <mxPoint x="433" y="332" as="targetPoint" />
          </mxGeometry>
        </mxCell>
        <mxCell id="dzOLKpJsvzJ7OyGeg9tF-39" value="" style="endArrow=none;dashed=1;html=1;dashPattern=1 3;strokeWidth=2;rounded=0;" edge="1" parent="1">
          <mxGeometry width="50" height="50" relative="1" as="geometry">
            <mxPoint x="399" y="134" as="sourcePoint" />
            <mxPoint x="439" y="324" as="targetPoint" />
          </mxGeometry>
        </mxCell>
        <mxCell id="dzOLKpJsvzJ7OyGeg9tF-40" value="&lt;font style=&quot;font-size: 8px;&quot; face=&quot;Times New Roman&quot;&gt;Camera&lt;/font&gt;" style="text;html=1;align=center;verticalAlign=middle;whiteSpace=wrap;rounded=0;rotation=45;" vertex="1" parent="1">
          <mxGeometry x="430" y="318" width="60" height="30" as="geometry" />
        </mxCell>
        <mxCell id="dzOLKpJsvzJ7OyGeg9tF-41" value="" style="verticalLabelPosition=bottom;html=1;verticalAlign=top;align=center;shape=mxgraph.floorplan.chair;rotation=90;" vertex="1" parent="1">
          <mxGeometry x="490" y="143" width="15" height="15" as="geometry" />
        </mxCell>
        <mxCell id="dzOLKpJsvzJ7OyGeg9tF-42" value="" style="sketch=0;pointerEvents=1;shadow=0;dashed=0;html=1;strokeColor=none;fillColor=#505050;labelPosition=center;verticalLabelPosition=bottom;verticalAlign=top;outlineConnect=0;align=center;shape=mxgraph.office.devices.laptop;" vertex="1" parent="1">
          <mxGeometry x="450.5" y="132.5" width="15" height="10" as="geometry" />
        </mxCell>
        <mxCell id="dzOLKpJsvzJ7OyGeg9tF-43" value="" style="sketch=0;pointerEvents=1;shadow=0;dashed=0;html=1;strokeColor=none;fillColor=#505050;labelPosition=center;verticalLabelPosition=bottom;verticalAlign=top;outlineConnect=0;align=center;shape=mxgraph.office.devices.laptop;" vertex="1" parent="1">
          <mxGeometry x="450.5" y="170" width="15" height="10" as="geometry" />
        </mxCell>
        <mxCell id="dzOLKpJsvzJ7OyGeg9tF-48" value="" style="sketch=0;pointerEvents=1;shadow=0;dashed=0;html=1;strokeColor=none;fillColor=#434445;aspect=fixed;labelPosition=center;verticalLabelPosition=bottom;verticalAlign=top;align=center;outlineConnect=0;shape=mxgraph.vvd.wi_fi;" vertex="1" parent="1">
          <mxGeometry x="480.8" y="208.79999999999998" width="12.4" height="12.4" as="geometry" />
        </mxCell>
        <mxCell id="dzOLKpJsvzJ7OyGeg9tF-49" value="&lt;font&gt;Charging station &amp;amp; networking&lt;/font&gt;" style="text;html=1;align=left;verticalAlign=middle;whiteSpace=wrap;rounded=0;rotation=0;spacing=2;fontFamily=Times New Roman;fontSize=7;" vertex="1" parent="1">
          <mxGeometry x="447.4" y="221.2" width="54" height="30" as="geometry" />
        </mxCell>
        <mxCell id="dzOLKpJsvzJ7OyGeg9tF-50" value="&lt;font&gt;2x Laptops&lt;/font&gt;" style="text;html=1;align=center;verticalAlign=middle;whiteSpace=wrap;rounded=0;rotation=-90;spacing=2;fontFamily=Times New Roman;fontSize=7;" vertex="1" parent="1">
          <mxGeometry x="444.2" y="143" width="54" height="30" as="geometry" />
        </mxCell>
      </root>
    </mxGraphModel>
  </diagram>
</mxfile>
